<svg width="20" height="21" viewBox="0 0 20 21" fill="none" xmlns="http://www.w3.org/2000/svg">
<g id="vuesax/linear/call-calling">
<g id="call-calling">
<g id="call-calling_2">
<path id="Vector" d="M17.3087 16.6498C17.3087 16.9498 17.242 17.2582 17.1003 17.5582C16.9587 17.8582 16.7753 18.1415 16.5337 18.4082C16.1253 18.8582 15.6753 19.1832 15.167 19.3915C14.667 19.5998 14.1253 19.7082 13.542 19.7082C12.692 19.7082 11.7837 19.5082 10.8253 19.0998C9.86699 18.6915 8.90866 18.1415 7.95866 17.4498C7.00033 16.7498 6.09199 15.9748 5.22533 15.1165C4.36699 14.2498 3.59199 13.3415 2.90033 12.3915C2.21699 11.4415 1.66699 10.4915 1.26699 9.54984C0.866992 8.59984 0.666992 7.6915 0.666992 6.82484C0.666992 6.25817 0.766992 5.7165 0.966992 5.2165C1.16699 4.70817 1.48366 4.2415 1.92533 3.82484C2.45866 3.29984 3.04199 3.0415 3.65866 3.0415C3.89199 3.0415 4.12533 3.0915 4.33366 3.1915C4.55033 3.2915 4.74199 3.4415 4.89199 3.65817L6.82533 6.38317C6.97533 6.5915 7.08366 6.78317 7.15866 6.9665C7.23366 7.1415 7.27533 7.3165 7.27533 7.47484C7.27533 7.67484 7.21699 7.87484 7.10033 8.0665C6.99199 8.25817 6.83366 8.45817 6.63366 8.65817L6.00033 9.3165C5.90866 9.40817 5.86699 9.5165 5.86699 9.64984C5.86699 9.7165 5.87533 9.77484 5.89199 9.8415C5.91699 9.90817 5.94199 9.95817 5.95866 10.0082C6.10866 10.2832 6.36699 10.6415 6.73366 11.0748C7.10866 11.5082 7.50866 11.9498 7.94199 12.3915C8.39199 12.8332 8.82533 13.2415 9.26699 13.6165C9.70033 13.9832 10.0587 14.2332 10.342 14.3832C10.3837 14.3998 10.4337 14.4248 10.492 14.4498C10.5587 14.4748 10.6253 14.4832 10.7003 14.4832C10.842 14.4832 10.9503 14.4332 11.042 14.3415L11.6753 13.7165C11.8837 13.5082 12.0837 13.3498 12.2753 13.2498C12.467 13.1332 12.6587 13.0748 12.867 13.0748C13.0253 13.0748 13.192 13.1082 13.3753 13.1832C13.5587 13.2582 13.7503 13.3665 13.9587 13.5082L16.717 15.4665C16.9337 15.6165 17.0837 15.7915 17.1753 15.9998C17.2587 16.2082 17.3087 16.4165 17.3087 16.6498Z" stroke="#023A51" stroke-width="1.2" stroke-miterlimit="10"/>
<path id="Vector_2" d="M14.4167 8.87467C14.4167 8.37467 14.025 7.60801 13.4417 6.98301C12.9083 6.40801 12.2 5.95801 11.5 5.95801" stroke="#023A51" stroke-width="1.2" stroke-linecap="round" stroke-linejoin="round"/>
<path id="Vector_3" d="M17.3333 8.87484C17.3333 5.64984 14.725 3.0415 11.5 3.0415" stroke="#023A51" stroke-width="1.2" stroke-linecap="round" stroke-linejoin="round"/>
</g>
</g>
</g>
</svg>
