<svg width="163" height="61" viewBox="0 0 163 61" fill="none" xmlns="http://www.w3.org/2000/svg">
<g id="Layer_1" clip-path="url(#clip0_36_6894)">
<path id="Vector" d="M69.3113 24.2988C67.1619 28.3318 65.1341 32.19 63.0531 36.0178C62.7265 36.6178 62.7265 36.8609 63.3948 37.1647C65.248 38.0153 67.0632 38.9495 68.9999 39.8989L64.5568 43.3773C61.0125 46.1318 57.4682 48.8862 53.9239 51.6406C53.7093 51.7811 53.5357 51.9761 53.421 52.2056C53.3062 52.4351 53.2544 52.6909 53.2708 52.947C53.2708 55.2254 53.2708 57.5039 53.2708 59.7216C53.2708 60.3976 53.0961 60.4811 52.5113 60.3065C48.6227 59.2963 44.7265 58.3014 40.8227 57.352C40.1543 57.1925 40.0632 56.9115 40.0632 56.2887C40.0632 49.0735 40.0632 41.8583 40.0632 34.6507V34.0963C40.0632 33.3368 39.7973 32.7748 38.9771 32.7748C38.1568 32.7748 37.8758 33.3292 37.8758 34.0811C37.8758 35.9723 37.8758 37.8786 37.8758 39.747C37.8758 45.0634 37.8758 50.3267 37.8758 55.6204C37.8758 56.3798 37.7695 56.5773 36.9341 56.3798C35.8784 56.1596 35.6126 55.7267 35.6201 54.6558C35.6809 47.8811 35.6201 41.1064 35.6201 34.3242C35.6842 33.9552 35.6311 33.5754 35.4682 33.2381C35.3668 33.0637 35.2161 32.923 35.035 32.8339C34.854 32.7447 34.6506 32.711 34.4505 32.7369C34.2351 32.7447 34.0283 32.8234 33.8622 32.9607C33.6961 33.098 33.5798 33.2863 33.5315 33.4963C33.4769 33.8327 33.4565 34.1736 33.4708 34.514V55.2178C33.4708 55.833 31.9518 56.7368 31.4353 56.4482C31.1695 56.3039 31.291 56.0077 31.291 55.7799C31.291 53.2432 31.291 50.6989 31.291 48.1849V34.3925C31.346 34.0227 31.2905 33.6449 31.1315 33.3065C31.0307 33.1119 30.8699 32.9551 30.6728 32.8593C30.4758 32.7635 30.2531 32.7339 30.0378 32.7748C29.8198 32.7985 29.6156 32.8931 29.4565 33.044C29.2974 33.1949 29.1921 33.3938 29.1568 33.6102C29.111 33.9168 29.0957 34.2272 29.1113 34.5368C29.1113 41.7748 29.1113 49.0204 29.1113 56.2584C29.1113 56.9267 28.9518 57.2077 28.2683 57.3748C24.3847 58.3166 20.5163 59.2938 16.6632 60.3065C16.048 60.466 15.9037 60.39 15.9037 59.7216C15.9037 57.5267 15.9037 55.3242 15.9037 53.1292C15.9234 52.8129 15.8585 52.497 15.7157 52.214C15.5729 51.931 15.3572 51.6912 15.091 51.5191C10.2758 47.7875 5.46572 44.0431 0.660658 40.2862L0.189753 39.8989L1.86065 39.071C3.18976 38.4178 4.50368 37.7267 5.86317 37.1191C6.45558 36.8533 6.448 36.6179 6.16699 36.1014C4.28344 32.6229 2.43026 29.1216 0.5695 25.6356L-0.0380859 24.4887C0.242927 24.2685 0.447993 24.4888 0.653056 24.5723C3.98723 25.7951 7.32901 27.0178 10.6556 28.2786C11.2252 28.4912 11.491 28.4685 11.7341 27.8305C12.4024 26.1065 13.1771 24.4128 13.8606 22.6887C14.0809 22.1343 14.3011 22.0887 14.8024 22.3925C16.8606 23.6305 18.9416 24.8305 21.167 26.1369C21.0378 20.8204 20.9087 15.6254 20.7796 10.3014C22.9062 11.4862 24.9417 12.5799 26.9315 13.7495C27.5999 14.1369 27.8809 14.1672 28.253 13.3698C30.1366 9.29888 32.0961 5.26596 34.0404 1.21786C34.1338 0.88984 34.3181 0.594897 34.572 0.367188L37.1163 5.59251C38.4227 8.29631 39.7442 10.9849 41.0201 13.7039C41.3011 14.3039 41.5366 14.3571 42.091 14.0153C44.1189 12.7697 46.1771 11.5774 48.3568 10.2786C47.9619 15.7318 47.5973 21.033 47.172 26.4786C49.4961 25.1495 51.729 23.8584 53.9467 22.6128C55.1771 21.9292 54.8733 21.8533 55.4657 23.1292C56.1265 24.6482 56.772 26.1672 57.3568 27.6862C57.6227 28.3622 57.8657 28.5444 58.61 28.2558C61.8075 27.0178 65.0353 25.8558 68.2556 24.6634L69.3113 24.2988Z" fill="#E22329"/>
<path id="Vector_2" d="M35.9851 27.6483C35.9092 28.9622 36.7447 28.909 37.656 28.8558C38.3069 28.8344 38.9584 28.8471 39.6079 28.8938C39.9497 28.8938 40.2383 29.0229 40.2079 29.4254C40.1776 29.828 39.9117 29.8584 39.6003 29.866C36.2586 29.9622 32.9168 29.9622 29.575 29.866C29.2484 29.866 29.013 29.7141 29.013 29.3799C29.013 29.0457 29.2408 28.8938 29.5674 28.8938C30.251 28.8938 30.9269 28.8482 31.6105 28.8558C32.294 28.8634 33.2813 29.0533 33.175 27.6862C31.917 27.6375 30.658 27.755 29.4307 28.0356C27.7007 28.3645 25.9894 28.7854 24.3041 29.2963C23.4459 29.547 22.5725 29.7597 21.6915 29.9343C20.4763 30.1698 20.4687 30.1394 20.894 31.2635C22.6636 35.9116 24.4636 40.5596 26.2105 45.2305C26.5522 46.1571 27.2206 45.6406 27.7826 45.8457C27.4962 46.4991 26.9951 47.0351 26.3624 47.3647C24.5853 48.4487 22.5786 49.1008 20.5037 49.2683C18.4288 49.4358 16.3436 49.1142 14.4156 48.3293C13.4353 47.972 12.623 47.2627 12.1371 46.3394C11.932 45.952 11.9852 45.7318 12.456 45.8153C13.2155 45.9369 13.451 45.5799 13.694 44.9419C15.4485 40.2178 17.2485 35.509 19.0561 30.8077C19.2459 30.2989 19.3067 30.0482 18.6839 29.7748C18.3049 29.6137 17.9926 29.3276 17.7991 28.9641C17.6056 28.6006 17.5426 28.1817 17.6206 27.7774C17.6434 27.4494 17.7674 27.1367 17.9756 26.8823C18.1837 26.6279 18.4657 26.4444 18.7826 26.3571C18.9377 26.3016 19.1022 26.2773 19.2667 26.2854C19.4312 26.2936 19.5925 26.3341 19.7413 26.4047C19.8902 26.4752 20.0236 26.5744 20.1341 26.6965C20.2446 26.8187 20.3299 26.9614 20.3852 27.1166C20.5826 27.785 20.2105 28.2862 19.375 28.4609L19.0181 28.5216C19.0181 28.5216 18.9725 28.5672 18.9193 28.6356C19.2004 29.1824 19.6788 29.0913 20.1877 29.0305C21.4099 28.8434 22.6072 28.5199 23.7573 28.066C26.7042 27.0331 29.6282 25.9014 32.8029 25.7875C32.9545 25.7695 33.0996 25.7157 33.2264 25.6306C33.3532 25.5455 33.458 25.4316 33.5321 25.2981C33.6063 25.1646 33.6477 25.0155 33.6529 24.8629C33.6582 24.7103 33.6271 24.5587 33.5624 24.4204C33.3945 24.1729 33.3307 23.8693 33.3847 23.5752C33.4387 23.2811 33.6062 23.02 33.851 22.8483C34.0758 22.6632 34.3597 22.565 34.6508 22.5716C34.9419 22.5782 35.221 22.6892 35.4372 22.8842C35.6534 23.0793 35.7924 23.3455 35.8289 23.6344C35.8653 23.9233 35.7968 24.2157 35.6358 24.4584C35.5785 24.5911 35.5522 24.7351 35.5585 24.8795C35.5649 25.0239 35.6039 25.1649 35.6726 25.2921C35.7413 25.4192 35.8379 25.5292 35.9552 25.6137C36.0725 25.6982 36.2073 25.755 36.3497 25.7799C39.8434 25.947 43.0029 27.3824 46.2687 28.3849C47.1417 28.701 48.0454 28.925 48.9649 29.0533C49.1911 29.1153 49.4297 29.1164 49.6565 29.0564C49.8833 28.9963 50.0901 28.8774 50.256 28.7115C50.1117 28.4609 49.8459 28.4533 49.6333 28.4078C49.0257 28.2634 48.6611 27.9292 48.7978 27.2913C48.8498 26.996 49.0161 26.7331 49.2607 26.5597C49.5052 26.3862 49.8083 26.3162 50.1042 26.3647C50.4494 26.3781 50.7798 26.5088 51.0407 26.7353C51.3017 26.9617 51.4776 27.2704 51.5396 27.6103C51.6889 27.9901 51.6942 28.4114 51.5543 28.7947C51.4143 29.1781 51.139 29.497 50.7801 29.6913C49.9067 30.0862 50.0738 30.5116 50.332 31.2103C52.132 35.8812 53.9472 40.5445 55.6484 45.2533C56.0054 46.2407 56.6813 45.7318 57.2434 45.9596C57.1851 46.3382 57.0376 46.6975 56.8131 47.0078C56.5886 47.3182 56.2935 47.5706 55.9522 47.7444C54.7474 48.5108 53.3786 48.9818 51.9573 49.1191C49.4074 49.5501 46.7891 49.3066 44.3624 48.4128C43.1209 48.0181 42.0826 47.1542 41.4687 46.0052C41.5371 45.9369 41.5826 45.8533 41.6054 45.8533C42.6231 46.0887 42.9497 45.4963 43.2611 44.6533C44.9472 40.0963 46.6788 35.6305 48.4181 31.1343C48.7067 30.3748 48.6915 30.0406 47.7193 29.9495C46.0669 29.6956 44.4384 29.3044 42.851 28.7799C40.6197 28.1125 38.3125 27.7323 35.9851 27.6483Z" fill="white"/>
<path id="Vector_3" d="M34.8459 31.9013H28.9143C28.4054 31.9013 27.8206 31.9013 27.8434 31.2253C27.8662 30.5494 28.413 30.6025 28.8915 30.6025H41.0434C41.5371 30.6025 42.0687 30.6026 42.0763 31.2481C42.0839 31.8937 41.5599 31.9089 41.0662 31.9089L34.8459 31.9013Z" fill="#FFFCFB"/>
<path id="Vector_4" d="M20.2402 32.2891C22.1542 36.7777 24.0377 41.2663 25.625 46.0359C23.8858 46.0359 22.306 46.0359 20.7339 46.0359C20.0427 46.0359 20.2858 45.565 20.2858 45.2764C20.2858 41.3498 20.2858 37.4233 20.2402 33.4967V32.2891Z" fill="#E2242A"/>
<path id="Vector_5" d="M48.9642 32.3721V41.448C48.9642 42.7164 48.9642 43.9847 48.9642 45.2455C48.9642 45.9139 48.7439 46.1037 48.1211 46.0809C46.9439 46.0278 45.7743 46.0354 44.5971 46.005C43.4199 45.9746 43.5338 45.967 43.9059 44.9949C44.954 42.2607 45.9971 39.5214 47.035 36.7771C47.5971 35.3138 48.154 33.848 48.7059 32.3797L48.9642 32.3721Z" fill="#E2242A"/>
<path id="Vector_6" d="M49.9444 32.335L52.9065 40.1046C53.5444 41.7755 54.1672 43.454 54.8128 45.1249C55.0406 45.7097 55.033 46.0134 54.2507 45.9906C52.952 45.9527 51.6533 45.9906 50.3545 46.0362C49.9824 46.0362 49.709 46.0362 49.709 45.5198C49.709 41.1375 49.709 36.7552 49.709 32.3653L49.9444 32.335Z" fill="#E2232A"/>
<path id="Vector_7" d="M19.4509 32.3799C19.4509 34.7115 19.4509 36.8609 19.4509 39.0027C19.4509 41.1445 19.4509 43.1495 19.4965 45.2229C19.4965 45.7925 19.413 46.0584 18.737 46.028C17.4079 45.9521 16.0788 45.952 14.7497 45.952C14.294 45.952 14.1193 45.8457 14.3016 45.3672L19.0864 32.6989C19.1396 32.6381 19.2231 32.5925 19.4509 32.3799Z" fill="#E2232A"/>
<path id="Vector_8" d="M76.6104 23.98C76.6104 19.2787 78.7673 17.0078 83.2787 17.0078C87.4256 17.0078 89.7724 18.3825 89.7724 21.9369H87.1521C87.1521 19.947 85.1319 19.5445 83.2408 19.5445C80.4686 19.5445 79.4433 20.8812 79.4433 23.9572C79.4433 27.0331 80.8559 28.4078 83.8028 28.4078C85.4661 28.4078 87.2357 28.142 87.2357 26.1901H89.8559C89.8559 29.7445 87.4331 30.9445 83.78 30.9445C78.9192 30.9445 76.6104 28.6736 76.6104 23.98Z" fill="#023A51"/>
<path id="Vector_9" d="M95.7112 22.9851C94.7695 22.9851 93.4935 23.0763 93.4935 24.4206H91.1467C91.1467 21.8003 92.9011 20.8281 95.7492 20.8281C99.015 20.8281 100.618 21.7395 100.618 25.0281V30.6636H98.0201V29.38C97.6403 30.3218 96.7594 30.9446 94.7315 30.9446C92.453 30.9446 90.6074 30.3218 90.6074 27.9066C90.6074 25.9395 92.1264 25.1952 94.6176 24.9446L98.0201 24.6408C98.0201 23.137 96.6606 22.9851 95.7112 22.9851ZM95.1188 26.7446C94.0479 26.8433 93.3188 27.1092 93.3188 27.8762C93.3188 28.4838 93.9113 28.7877 95.1568 28.7877C97.048 28.7877 97.9441 28.0282 98.0201 27.413V26.4636L95.1188 26.7446Z" fill="#023A51"/>
<path id="Vector_10" d="M109.519 30.9448V25.9246C109.519 24.4056 109.086 23.5398 107.324 23.5398C105.759 23.5398 104.916 24.436 104.916 26.1752V30.9448H102.304V21.398H104.962V22.6967C105.303 22.1714 105.779 21.7472 106.34 21.4681C106.901 21.1889 107.527 21.0651 108.152 21.1094C110.81 21.1094 112.185 22.279 112.185 25.6663V30.9372L109.519 30.9448Z" fill="#023A51"/>
<path id="Vector_11" d="M118.413 22.9851C117.478 22.9851 116.195 23.0763 116.195 24.4206H113.848C113.848 21.8003 115.602 20.8281 118.451 20.8281C121.716 20.8281 123.319 21.7395 123.319 25.0281V30.6636H120.721V29.38C120.342 30.3218 119.461 30.9446 117.44 30.9446C115.162 30.9446 113.316 30.3218 113.316 27.9066C113.316 25.9395 114.835 25.1952 117.327 24.9446L120.721 24.6408C120.721 23.137 119.392 22.9851 118.413 22.9851ZM117.82 26.7446C116.749 26.8433 116.028 27.1092 116.028 27.8762C116.028 28.4838 116.62 28.7877 117.858 28.7877C119.749 28.7877 120.646 28.0282 120.721 27.413V26.4636L117.82 26.7446Z" fill="#023A51"/>
<path id="Vector_12" d="M132.258 29.2512C131.982 29.8071 131.544 30.2664 131.001 30.5687C130.459 30.871 129.838 31.0021 129.22 30.9449C126.607 30.9449 124.663 29.2133 124.663 25.8867C124.663 22.5601 126.364 20.8284 129.152 20.8284C130.792 20.8284 131.749 21.4209 132.266 22.469V16.3398H134.878V30.6639H132.266L132.258 29.2512ZM129.797 28.4917C131.438 28.4917 132.258 27.5727 132.258 25.8563C132.258 24.1398 131.438 23.2209 129.797 23.2209C127.959 23.2209 127.367 24.117 127.367 25.8563C127.367 27.5955 128.187 28.5373 129.797 28.5373V28.4917Z" fill="#023A51"/>
<path id="Vector_13" d="M138.083 16.9092C139.207 16.9092 139.686 17.4257 139.686 18.4965C139.686 19.5674 139.207 20.0839 138.083 20.0839C137.662 20.0839 137.259 19.9166 136.961 19.619C136.663 19.3213 136.496 18.9175 136.496 18.4965C136.496 18.0756 136.663 17.6718 136.961 17.3741C137.259 17.0764 137.662 16.9092 138.083 16.9092ZM136.785 21.3978H139.397V30.9446H136.785V21.3978Z" fill="#023A51"/>
<path id="Vector_14" d="M145.838 22.9851C144.896 22.9851 143.62 23.0763 143.62 24.4206H141.274C141.274 21.8003 143.028 20.8281 145.876 20.8281C149.142 20.8281 150.745 21.7395 150.745 25.0281V30.6636H148.147V29.38C147.767 30.3218 146.886 30.9446 144.858 30.9446C142.58 30.9446 140.734 30.3218 140.734 27.9066C140.734 25.9395 142.253 25.1952 144.745 24.9446L148.147 24.6408C148.147 23.137 146.788 22.9851 145.838 22.9851ZM145.246 26.7446C144.175 26.8433 143.446 27.1092 143.446 27.8762C143.446 28.4838 144.038 28.7877 145.284 28.7877C147.175 28.7877 148.071 28.0282 148.147 27.413V26.4636L145.246 26.7446Z" fill="#023A51"/>
<path id="Vector_15" d="M159.646 30.9448V25.9246C159.646 24.4056 159.213 23.5398 157.451 23.5398C155.886 23.5398 155.043 24.436 155.043 26.1752V30.9448H152.431V21.398H155.089V22.6967C155.43 22.1714 155.906 21.7472 156.467 21.4681C157.028 21.1889 157.654 21.0651 158.279 21.1094C160.937 21.1094 162.312 22.279 162.312 25.6663V30.9372L159.646 30.9448Z" fill="#023A51"/>
<path id="Vector_16" d="M76.6104 34.4688H79.3446V39.9295H85.9749V34.484H88.7091V47.8586H85.9749V42.4131H79.3522V47.8586H76.618L76.6104 34.4688Z" fill="#023A51"/>
<path id="Vector_17" d="M95.0205 37.7197C98.6661 37.7197 100.428 39.4589 100.428 42.7779C100.428 46.0969 98.6661 47.8437 95.0205 47.8437C91.375 47.8437 89.6357 46.1045 89.6357 42.7779C89.6357 39.4514 91.375 37.7197 95.0205 37.7197ZM95.0205 45.4134C96.8357 45.4134 97.7168 44.5172 97.7168 42.7779C97.7168 41.0387 96.8357 40.1425 95.0205 40.1425C93.2053 40.1425 92.3471 41.0387 92.3471 42.7779C92.3471 44.5172 93.2281 45.4134 95.0205 45.4134Z" fill="#023A51"/>
<path id="Vector_18" d="M101.924 47.8433V38.2889H104.536V39.5724C104.806 39.0866 105.203 38.6839 105.685 38.408C106.167 38.1322 106.715 37.9938 107.271 38.0078C109.504 38.0078 110.802 39.3066 110.802 42.1471H108.455C108.47 41.9106 108.433 41.6737 108.347 41.4531C108.26 41.2325 108.126 41.0334 107.955 40.8699C107.783 40.7064 107.578 40.5824 107.354 40.5065C107.129 40.4306 106.891 40.4047 106.655 40.4306C105.319 40.4306 104.536 41.3268 104.536 43.0661V47.8433H101.924Z" fill="#023A51"/>
<path id="Vector_19" d="M113.468 33.8008C114.592 33.8008 115.071 34.3173 115.071 35.3881C115.071 36.459 114.592 36.9755 113.468 36.9755C113.047 36.9755 112.643 36.8082 112.346 36.5106C112.048 36.2129 111.881 35.8091 111.881 35.3881C111.881 34.9672 112.048 34.5634 112.346 34.2657C112.643 33.968 113.047 33.8008 113.468 33.8008ZM112.169 38.2894H114.782V47.8438H112.169V38.2894Z" fill="#023A51"/>
<path id="Vector_20" d="M116.309 38.2891H124.769V40.6435L120 45.489H124.769V47.8435H116.309V45.489L121.109 40.6435H116.309V38.2891Z" fill="#023A51"/>
<path id="Vector_21" d="M131.301 37.7197C134.946 37.7197 136.708 39.4589 136.708 42.7779C136.708 46.0969 134.946 47.8437 131.301 47.8437C127.655 47.8437 125.916 46.1045 125.916 42.7779C125.916 39.4514 127.655 37.7197 131.301 37.7197ZM131.301 45.4134C133.116 45.4134 133.997 44.5172 133.997 42.7779C133.997 41.0387 133.116 40.1425 131.301 40.1425C129.486 40.1425 128.627 41.0387 128.627 42.7779C128.627 44.5172 129.508 45.4134 131.301 45.4134Z" fill="#023A51"/>
<path id="Vector_22" d="M145.451 47.8433V42.8155C145.451 41.2965 145.01 40.4306 143.256 40.4306C141.691 40.4306 140.848 41.3269 140.848 43.0661V47.8433H138.235V38.2889H140.848V39.5876C141.191 39.0643 141.668 38.642 142.228 38.3643C142.789 38.0866 143.414 37.9635 144.038 38.0078C146.696 38.0078 148.071 39.1699 148.071 42.5648V47.8357L145.451 47.8433Z" fill="#023A51"/>
<path id="Vector_23" d="M76.6104 60.329V56.2354H77.1952V60.329H76.6104Z" fill="#E22329"/>
<path id="Vector_24" d="M79.0098 60.329V56.2354H79.4883L81.3262 59.3265H81.068L82.8832 56.2354H83.3616V60.329H82.7996V57.1164H82.9363L81.3186 59.8278H81.0528L79.4275 57.1164H79.5718V60.329H79.0098Z" fill="#E22329"/>
<path id="Vector_25" d="M85.2148 60.329V56.2354H85.7009L87.5313 59.3265H87.2731L89.0882 56.2354H89.5667V60.329H89.0123V57.1164H89.149L87.4933 59.8278H87.2199L85.5946 57.1164H85.7389V60.329H85.2148Z" fill="#E22329"/>
<path id="Vector_26" d="M91.3516 60.329V56.2354H91.9363V60.329H91.3516Z" fill="#E22329"/>
<path id="Vector_27" d="M95.5979 60.3748C95.3 60.3769 95.0042 60.3254 94.7245 60.2228C94.4676 60.1226 94.2327 59.9729 94.0333 59.7824C93.8409 59.5901 93.6864 59.3634 93.5777 59.114C93.4688 58.8491 93.4145 58.5649 93.4181 58.2785C93.4153 57.9922 93.4696 57.7083 93.5777 57.4431C93.8016 56.9377 94.2167 56.5417 94.7321 56.3418C95.0107 56.2354 95.3073 56.1839 95.6055 56.1899C95.9084 56.1871 96.2093 56.2386 96.4941 56.3418C96.7595 56.4435 96.9966 56.6076 97.1852 56.8203L96.8207 57.1849C96.6661 57.0262 96.4798 56.902 96.2738 56.8203C96.0701 56.7432 95.8537 56.7046 95.6358 56.7064C95.4122 56.7028 95.1901 56.7441 94.9827 56.8279C94.7863 56.8973 94.6074 57.0087 94.4586 57.1545C94.311 57.2943 94.1967 57.4657 94.1245 57.6558C94.0406 57.8525 93.9992 58.0647 94.003 58.2785C93.9992 58.4924 94.0406 58.7046 94.1245 58.9013C94.1986 59.0927 94.3125 59.2662 94.4586 59.4102C94.6078 59.5518 94.7832 59.6628 94.9751 59.7368C95.184 59.8146 95.4054 59.8531 95.6283 59.8507C95.8424 59.8526 96.0554 59.8192 96.2586 59.752C96.465 59.6774 96.6538 59.5611 96.8131 59.4102L97.1473 59.8507C96.9372 60.0275 96.6947 60.1617 96.4334 60.2456C96.1631 60.3309 95.8813 60.3744 95.5979 60.3748ZM96.5852 59.7748V58.2558H97.1473V59.8507L96.5852 59.7748Z" fill="#E22329"/>
<path id="Vector_28" d="M98.8857 60.3293V56.2356H100.481C100.795 56.2252 101.109 56.2822 101.4 56.4027C101.64 56.5048 101.844 56.6768 101.984 56.8964C102.124 57.1247 102.195 57.3883 102.19 57.6559C102.197 57.9237 102.126 58.1878 101.984 58.4154C101.845 58.6347 101.641 58.8048 101.4 58.9014C101.109 59.0248 100.796 59.0844 100.481 59.0761H99.2123L99.4706 58.8027V60.3217L98.8857 60.3293ZM99.4706 58.871L99.2123 58.5824H100.405C100.708 58.6068 101.01 58.5205 101.255 58.3394C101.347 58.2515 101.42 58.146 101.47 58.0291C101.52 57.9123 101.545 57.7866 101.545 57.6596C101.545 57.5326 101.52 57.407 101.47 57.2902C101.42 57.1734 101.347 57.0678 101.255 56.9799C101.008 56.8051 100.707 56.7219 100.405 56.7445H99.1515L99.4098 56.4483L99.4706 58.871ZM101.628 60.3293L100.579 58.8103H101.164L102.212 60.3293H101.628Z" fill="#E22329"/>
<path id="Vector_29" d="M103.063 60.329L104.917 56.2354H105.501L107.362 60.329H106.747L105.091 56.5316H105.327L103.671 60.329H103.063ZM103.823 59.3037L103.982 58.8329H106.261L106.436 59.3037H103.823Z" fill="#E22329"/>
<path id="Vector_30" d="M109.162 60.329V56.7442H107.757V56.2354H111.144V56.7442H109.739V60.329H109.162Z" fill="#E22329"/>
<path id="Vector_31" d="M112.367 60.329V56.2354H112.952V60.329H112.367Z" fill="#E22329"/>
<path id="Vector_32" d="M116.613 60.3746C116.314 60.3768 116.018 60.3227 115.739 60.2151C115.482 60.1149 115.247 59.9652 115.048 59.7746C114.857 59.5837 114.703 59.3598 114.592 59.1139C114.484 58.8487 114.43 58.5647 114.433 58.2784C114.43 57.9946 114.484 57.7131 114.592 57.4506C114.813 56.9438 115.225 56.545 115.739 56.3417C116.019 56.2391 116.315 56.1876 116.613 56.1898C116.906 56.1847 117.197 56.2363 117.471 56.3417C117.728 56.442 117.962 56.5917 118.162 56.7822C118.357 56.9691 118.512 57.194 118.618 57.443C118.728 57.7076 118.785 57.9916 118.785 58.2784C118.786 58.5653 118.729 58.8495 118.618 59.1139C118.514 59.3662 118.359 59.594 118.162 59.7822C117.962 59.9728 117.728 60.1224 117.471 60.2227C117.196 60.3255 116.905 60.377 116.613 60.3746ZM116.613 59.8506C116.828 59.8523 117.042 59.8137 117.243 59.7367C117.429 59.6606 117.599 59.5497 117.744 59.4101C117.886 59.2655 117.999 59.0954 118.078 58.9088C118.24 58.5067 118.24 58.0577 118.078 57.6557C117.999 57.469 117.886 57.2989 117.744 57.1544C117.601 57.0122 117.431 56.901 117.243 56.8278C117.043 56.7446 116.829 56.7032 116.613 56.7063C116.394 56.7033 116.177 56.7446 115.975 56.8278C115.787 56.901 115.616 57.0122 115.473 57.1544C115.329 57.2986 115.213 57.4687 115.131 57.6557C114.979 58.0595 114.979 58.5049 115.131 58.9088C115.213 59.0958 115.329 59.2658 115.473 59.4101C115.618 59.5497 115.788 59.6606 115.975 59.7367C116.178 59.8138 116.395 59.8524 116.613 59.8506Z" fill="#E22329"/>
<path id="Vector_33" d="M120.258 60.329V56.2354H120.744L123.448 59.5999H123.189V56.2354H123.774V60.329H123.296L120.584 56.9645H120.835V60.329H120.258Z" fill="#E22329"/>
<path id="Vector_34" d="M127.132 60.329L128.985 56.2354H129.57L131.431 60.329H130.785L129.129 56.5316H129.357L127.709 60.329H127.132ZM127.891 59.3037L128.051 58.8329H130.329L130.504 59.3037H127.891Z" fill="#E22329"/>
<path id="Vector_35" d="M132.623 60.3297V56.236H134.347C134.747 56.2269 135.143 56.3156 135.502 56.4942C135.818 56.6546 136.081 56.9024 136.261 57.2082C136.453 57.5318 136.55 57.9028 136.542 58.279C136.552 58.6555 136.455 59.0271 136.261 59.3499C136.082 59.6577 135.818 59.908 135.502 60.0715C135.143 60.2501 134.747 60.3387 134.347 60.3297H132.623ZM133.208 59.8208H134.309C134.614 59.8274 134.917 59.7596 135.19 59.6233C135.431 59.5043 135.632 59.3167 135.767 59.0841C135.902 58.837 135.972 58.5602 135.972 58.279C135.972 57.9978 135.902 57.7211 135.767 57.474C135.63 57.243 135.43 57.056 135.19 56.9348C134.916 56.8011 134.614 56.7359 134.309 56.7449H133.208V59.8208Z" fill="#E22329"/>
<path id="Vector_36" d="M139.086 60.329L137.286 56.2354H137.917L139.572 60.0328H139.208L140.879 56.2354H141.463L139.671 60.329H139.086Z" fill="#E22329"/>
<path id="Vector_37" d="M142.564 60.329V56.2354H143.149V60.329H142.564Z" fill="#E22329"/>
<path id="Vector_38" d="M146.157 60.3746C145.853 60.3768 145.55 60.328 145.261 60.2303C145.014 60.1572 144.785 60.0301 144.593 59.8582L144.805 59.4025C144.984 59.5508 145.187 59.6665 145.405 59.7443C145.648 59.8358 145.906 59.8821 146.165 59.881C146.363 59.8861 146.561 59.8578 146.75 59.7974C146.878 59.7543 146.992 59.6752 147.076 59.5695C147.146 59.4752 147.184 59.3605 147.183 59.243C147.185 59.18 147.174 59.1172 147.149 59.0594C147.124 59.0015 147.086 58.95 147.038 58.9088C146.937 58.8114 146.815 58.7386 146.681 58.6962C146.525 58.6396 146.365 58.5939 146.203 58.5595L145.671 58.4227C145.504 58.3707 145.341 58.3047 145.185 58.2253C145.044 58.1426 144.925 58.0282 144.836 57.8911C144.739 57.7312 144.691 57.5463 144.699 57.3594C144.696 57.1523 144.754 56.9488 144.866 56.7746C144.993 56.5856 145.173 56.4378 145.383 56.3493C145.661 56.2335 145.962 56.1791 146.264 56.1898C146.505 56.1897 146.744 56.2204 146.978 56.281C147.193 56.3369 147.398 56.4266 147.585 56.5468L147.388 57.0177C147.218 56.9028 147.031 56.8156 146.833 56.7594C146.647 56.7123 146.456 56.6868 146.264 56.6835C146.072 56.677 145.881 56.708 145.702 56.7746C145.572 56.816 145.459 56.8954 145.375 57.0025C145.306 57.1003 145.269 57.217 145.269 57.3366C145.267 57.4006 145.279 57.4642 145.304 57.5232C145.329 57.5821 145.366 57.6351 145.413 57.6784C145.517 57.7707 145.638 57.8406 145.77 57.8835C145.926 57.9401 146.086 57.9857 146.248 58.0202L146.78 58.1569C146.948 58.2075 147.111 58.2736 147.266 58.3544C147.408 58.4322 147.528 58.5445 147.616 58.681C147.712 58.8408 147.76 59.0258 147.752 59.2126C147.753 59.4171 147.695 59.6175 147.585 59.7898C147.455 59.9791 147.273 60.1268 147.061 60.2151C146.775 60.3318 146.466 60.3862 146.157 60.3746Z" fill="#E22329"/>
<path id="Vector_39" d="M151.033 60.3746C150.735 60.3768 150.439 60.3227 150.16 60.2151C149.903 60.1149 149.668 59.9652 149.469 59.7746C149.273 59.5878 149.118 59.3629 149.013 59.1139C148.905 58.8487 148.851 58.5647 148.854 58.2784C148.851 57.9946 148.905 57.7131 149.013 57.4506C149.116 57.2005 149.272 56.9752 149.469 56.7898C149.668 56.5968 149.903 56.4446 150.16 56.3417C150.44 56.2391 150.735 56.1876 151.033 56.1898C151.327 56.1847 151.618 56.2363 151.892 56.3417C152.149 56.442 152.383 56.5917 152.583 56.7822C152.778 56.9691 152.933 57.194 153.038 57.443C153.147 57.7081 153.201 57.9921 153.198 58.2784C153.202 58.5648 153.147 58.849 153.038 59.1139C152.935 59.3662 152.78 59.594 152.583 59.7822C152.383 59.9728 152.149 60.1224 151.892 60.2227C151.617 60.3255 151.326 60.377 151.033 60.3746ZM151.033 59.8506C151.249 59.8523 151.463 59.8137 151.664 59.7367C151.85 59.6606 152.02 59.5497 152.165 59.4101C152.307 59.2655 152.42 59.0954 152.499 58.9088C152.651 58.5049 152.651 58.0595 152.499 57.6557C152.42 57.469 152.307 57.2989 152.165 57.1544C152.022 57.0122 151.852 56.901 151.664 56.8278C151.256 56.6659 150.803 56.6659 150.395 56.8278C150.208 56.901 150.037 57.0122 149.894 57.1544C149.75 57.2986 149.634 57.4687 149.552 57.6557C149.4 58.0595 149.4 58.5049 149.552 58.9088C149.634 59.0958 149.75 59.2658 149.894 59.4101C150.039 59.5497 150.209 59.6606 150.395 59.7367C150.599 59.8144 150.815 59.8531 151.033 59.8506Z" fill="#E22329"/>
<path id="Vector_40" d="M154.679 60.3291V56.2355H156.281C156.593 56.2257 156.904 56.2827 157.193 56.4026C157.433 56.5046 157.636 56.6767 157.777 56.8963C157.917 57.1246 157.988 57.3882 157.982 57.6557C157.99 57.9235 157.919 58.1876 157.777 58.4152C157.638 58.6346 157.434 58.8046 157.193 58.9013C156.905 59.0238 156.594 59.0834 156.281 59.076H155.005L155.263 58.8025V60.3215L154.679 60.3291ZM155.263 58.8709L155.005 58.5823H156.258C156.562 58.6074 156.864 58.521 157.109 58.3393C157.201 58.2514 157.274 58.1458 157.323 58.029C157.373 57.9122 157.399 57.7865 157.399 57.6595C157.399 57.5325 157.373 57.4069 157.323 57.29C157.274 57.1732 157.201 57.0677 157.109 56.9798C156.862 56.8038 156.561 56.7205 156.258 56.7443H155.005L155.263 56.4481V58.8709ZM157.42 60.3291L156.38 58.8101H157.003L158.058 60.3291H157.42Z" fill="#E22329"/>
<path id="Vector_41" d="M160.709 60.3746C160.404 60.3768 160.101 60.328 159.813 60.2303C159.565 60.1572 159.337 60.0301 159.145 59.8582L159.357 59.4025C159.536 59.5508 159.739 59.6665 159.957 59.7443C160.2 59.8358 160.457 59.8821 160.717 59.881C160.915 59.8861 161.113 59.8578 161.301 59.7974C161.43 59.7543 161.543 59.6752 161.628 59.5695C161.695 59.4742 161.73 59.3596 161.727 59.243C161.731 59.1805 161.721 59.118 161.697 59.06C161.674 59.0021 161.637 58.9504 161.59 58.9088C161.489 58.8114 161.367 58.7386 161.233 58.6962C161.077 58.6396 160.917 58.5939 160.755 58.5595L160.223 58.4227C160.056 58.3707 159.893 58.3047 159.737 58.2253C159.595 58.1446 159.474 58.0297 159.388 57.8911C159.291 57.7312 159.243 57.5463 159.251 57.3594C159.247 57.1523 159.306 56.9488 159.418 56.7746C159.545 56.5856 159.724 56.4378 159.934 56.3493C160.213 56.2335 160.514 56.1791 160.815 56.1898C161.056 56.1897 161.296 56.2204 161.529 56.281C161.745 56.3369 161.95 56.4266 162.137 56.5468L161.939 57.0177C161.769 56.9028 161.582 56.8156 161.385 56.7594C161.199 56.7123 161.008 56.6868 160.815 56.6835C160.624 56.677 160.433 56.708 160.253 56.7746C160.124 56.816 160.01 56.8954 159.927 57.0025C159.858 57.1003 159.821 57.217 159.82 57.3366C159.819 57.4006 159.831 57.4642 159.856 57.5232C159.88 57.5821 159.918 57.6351 159.965 57.6784C160.068 57.7707 160.19 57.8406 160.322 57.8835C160.478 57.9401 160.638 57.9857 160.8 58.0202L161.332 58.1569C161.499 58.2089 161.662 58.2749 161.818 58.3544C161.958 58.4342 162.078 58.5461 162.167 58.681C162.264 58.8408 162.312 59.0258 162.304 59.2126C162.305 59.4171 162.247 59.6175 162.137 59.7898C162.007 59.9791 161.825 60.1268 161.613 60.2151C161.326 60.3318 161.018 60.3862 160.709 60.3746Z" fill="#E22329"/>
<path id="Vector_42" d="M162.304 51.8232H76.6182V52.203H162.304V51.8232Z" fill="#E22329"/>
</g>
<defs>
<clipPath id="clip0_36_6894">
<rect width="162.296" height="60" fill="white" transform="translate(0 0.375)"/>
</clipPath>
</defs>
</svg>
