<svg width="24" height="24" viewBox="0 0 24 24" fill="none" xmlns="http://www.w3.org/2000/svg">
<g id="material-symbols:avg-time">
<path id="Vector" d="M9.62983 3.89238V2H15.307V3.89238H9.62983ZM10.576 15.0101L9.53521 12.9285C9.45636 12.755 9.33809 12.6248 9.18039 12.5377C9.02269 12.4507 8.85711 12.4075 8.68364 12.4081H4C4.23655 10.2792 5.15908 8.48551 6.76761 7.02711C8.37613 5.56872 10.2764 4.8392 12.4684 4.83857C13.4461 4.83857 14.3844 4.99627 15.2833 5.31167C16.1822 5.62706 17.0259 6.08439 17.8144 6.68364L19.139 5.35898L20.4637 6.68364L19.139 8.00831C19.6437 8.67064 20.0458 9.36862 20.3454 10.1022C20.6451 10.8358 20.8422 11.6045 20.9368 12.4081H16.8445L15.2124 9.14374C15.0389 8.78103 14.755 8.59968 14.3608 8.59968C13.9665 8.59968 13.6827 8.78103 13.5092 9.14374L10.576 15.0101ZM12.4684 21.87C10.2764 21.87 8.37613 21.1408 6.76761 19.6824C5.15908 18.224 4.23655 16.43 4 14.3005H8.09227L9.72445 17.5648C9.89792 17.9275 10.1818 18.1089 10.576 18.1089C10.9703 18.1089 11.2541 17.9275 11.4276 17.5648L14.3608 11.6985L15.4016 13.7801C15.4804 13.9535 15.5987 14.0838 15.7564 14.1708C15.9141 14.2579 16.0797 14.3011 16.2532 14.3005H20.9368C20.7003 16.4294 19.7777 18.2231 18.1692 19.6815C16.5607 21.1399 14.6604 21.8694 12.4684 21.87Z" fill="white"/>
</g>
</svg>
