<svg width="24" height="25" viewBox="0 0 24 25" fill="none" xmlns="http://www.w3.org/2000/svg">
<g id="ri:instagram-fill">
<path id="Vector" d="M13.0276 2.375C14.1526 2.378 14.7236 2.384 15.2166 2.398L15.4106 2.405C15.6346 2.413 15.8556 2.423 16.1226 2.435C17.1866 2.485 17.9126 2.653 18.5496 2.9C19.2096 3.154 19.7656 3.498 20.3216 4.053C20.8301 4.5529 21.2236 5.15759 21.4746 5.825C21.7216 6.462 21.8896 7.188 21.9396 8.253C21.9516 8.519 21.9616 8.74 21.9696 8.965L21.9756 9.159C21.9906 9.651 21.9966 10.222 21.9986 11.347L21.9996 12.093V13.403C22.0021 14.1324 21.9944 14.8618 21.9766 15.591L21.9706 15.785C21.9626 16.01 21.9526 16.231 21.9406 16.497C21.8906 17.562 21.7206 18.287 21.4746 18.925C21.2243 19.5928 20.8307 20.1976 20.3216 20.697C19.8216 21.2053 19.2169 21.5988 18.5496 21.85C17.9126 22.097 17.1866 22.265 16.1226 22.315C15.8853 22.3262 15.648 22.3362 15.4106 22.345L15.2166 22.351C14.7236 22.365 14.1526 22.372 13.0276 22.374L12.2816 22.375H10.9726C10.2429 22.3775 9.51312 22.3699 8.7836 22.352L8.5896 22.346C8.35221 22.337 8.11487 22.3267 7.8776 22.315C6.8136 22.265 6.0876 22.097 5.4496 21.85C4.78227 21.5994 4.17782 21.2058 3.6786 20.697C3.16965 20.1973 2.77582 19.5926 2.5246 18.925C2.2776 18.288 2.1096 17.562 2.0596 16.497C2.04846 16.2597 2.03846 16.0224 2.0296 15.785L2.0246 15.591C2.00617 14.8618 1.99784 14.1324 1.9996 13.403V11.347C1.99681 10.6176 2.00414 9.8882 2.0216 9.159L2.0286 8.965C2.0366 8.74 2.0466 8.519 2.0586 8.253C2.1086 7.188 2.2766 6.463 2.5236 5.825C2.77471 5.1569 3.16932 4.55202 3.6796 4.053C4.17869 3.54447 4.78274 3.15099 5.4496 2.9C6.0876 2.653 6.8126 2.485 7.8776 2.435C8.1436 2.423 8.3656 2.413 8.5896 2.405L8.7836 2.399C9.51279 2.38123 10.2422 2.37357 10.9716 2.376L13.0276 2.375ZM11.9996 7.375C10.6735 7.375 9.40175 7.90178 8.46407 8.83947C7.52638 9.77715 6.9996 11.0489 6.9996 12.375C6.9996 13.7011 7.52638 14.9729 8.46407 15.9105C9.40175 16.8482 10.6735 17.375 11.9996 17.375C13.3257 17.375 14.5975 16.8482 15.5351 15.9105C16.4728 14.9729 16.9996 13.7011 16.9996 12.375C16.9996 11.0489 16.4728 9.77715 15.5351 8.83947C14.5975 7.90178 13.3257 7.375 11.9996 7.375ZM11.9996 9.375C12.3936 9.37493 12.7837 9.45247 13.1477 9.60317C13.5117 9.75387 13.8424 9.9748 14.1211 10.2533C14.3997 10.5319 14.6207 10.8625 14.7715 11.2265C14.9224 11.5904 15 11.9805 15.0001 12.3745C15.0002 12.7685 14.9226 13.1586 14.7719 13.5226C14.6212 13.8866 14.4003 14.2173 14.1218 14.496C13.8432 14.7746 13.5126 14.9956 13.1486 15.1464C12.7847 15.2973 12.3946 15.3749 12.0006 15.375C11.205 15.375 10.4419 15.0589 9.87928 14.4963C9.31667 13.9337 9.0006 13.1706 9.0006 12.375C9.0006 11.5794 9.31667 10.8163 9.87928 10.2537C10.4419 9.69107 11.205 9.375 12.0006 9.375M17.2506 5.875C16.9191 5.875 16.6011 6.0067 16.3667 6.24112C16.1323 6.47554 16.0006 6.79348 16.0006 7.125C16.0006 7.45652 16.1323 7.77446 16.3667 8.00888C16.6011 8.2433 16.9191 8.375 17.2506 8.375C17.5821 8.375 17.9001 8.2433 18.1345 8.00888C18.3689 7.77446 18.5006 7.45652 18.5006 7.125C18.5006 6.79348 18.3689 6.47554 18.1345 6.24112C17.9001 6.0067 17.5821 5.875 17.2506 5.875Z" fill="#023A51"/>
</g>
</svg>
