<svg width="24" height="24" viewBox="0 0 24 24" fill="none" xmlns="http://www.w3.org/2000/svg">
<g id="solar:card-bold">
<g id="Mask group">
<mask id="mask0_48_406" style="mask-type:luminance" maskUnits="userSpaceOnUse" x="2" y="4" width="20" height="16">
<g id="Group">
<g id="Group_2">
<path id="Vector" d="M14 4H10C6.229 4 4.343 4 3.172 5.172C2.328 6.015 2.092 7.229 2.026 9.25H21.974C21.908 7.229 21.672 6.015 20.828 5.172C19.657 4 17.771 4 14 4ZM10 20H14C17.771 20 19.657 20 20.828 18.828C22 17.657 22 15.771 22 12C22 11.558 22 11.142 21.998 10.75H2.002C2 11.142 2 11.558 2 12C2 15.771 2 17.657 3.172 18.828C4.343 20 6.229 20 10 20Z" fill="white"/>
<path id="Vector_2" fill-rule="evenodd" clip-rule="evenodd" d="M5.25 16C5.25 15.8011 5.32902 15.6103 5.46967 15.4697C5.61032 15.329 5.80109 15.25 6 15.25H10C10.1989 15.25 10.3897 15.329 10.5303 15.4697C10.671 15.6103 10.75 15.8011 10.75 16C10.75 16.1989 10.671 16.3897 10.5303 16.5303C10.3897 16.671 10.1989 16.75 10 16.75H6C5.80109 16.75 5.61032 16.671 5.46967 16.5303C5.32902 16.3897 5.25 16.1989 5.25 16ZM11.75 16C11.75 15.8011 11.829 15.6103 11.9697 15.4697C12.1103 15.329 12.3011 15.25 12.5 15.25H14C14.1989 15.25 14.3897 15.329 14.5303 15.4697C14.671 15.6103 14.75 15.8011 14.75 16C14.75 16.1989 14.671 16.3897 14.5303 16.5303C14.3897 16.671 14.1989 16.75 14 16.75H12.5C12.3011 16.75 12.1103 16.671 11.9697 16.5303C11.829 16.3897 11.75 16.1989 11.75 16Z" fill="black"/>
</g>
</g>
</mask>
<g mask="url(#mask0_48_406)">
<path id="Vector_3" d="M0 0H24V24H0V0Z" fill="white"/>
</g>
</g>
</g>
</svg>
